IKResults
version=1
nRows=10
nColumns=40
inDegrees=yes

Units are S.I. units (second, meters, Newtons, ...)
Angles are in degrees.

endheader
time	pelvis_tilt	pelvis_list	pelvis_rotation	pelvis_tx	pelvis_ty	pelvis_tz	hip_flexion_r	hip_adduction_r	hip_rotation_r	knee_angle_r	knee_angle_r_beta	ankle_angle_r	subtalar_angle_r	mtp_angle_r	hip_flexion_l	hip_adduction_l	hip_rotation_l	knee_angle_l	knee_angle_l_beta	ankle_angle_l	subtalar_angle_l	mtp_angle_l	lumbar_extension	lumbar_bending	lumbar_rotation	arm_flex_r	arm_add_r	arm_rot_r	elbow_flex_r	pro_sup_r	wrist_flex_r	wrist_dev_r	arm_flex_l	arm_add_l	arm_rot_l	elbow_flex_l	pro_sup_l	wrist_flex_l	wrist_dev_l
      0.00000000	     18.10151743	     -1.44441828	     -0.90040127	     -0.76861698	      0.95001866	     -0.99698859	    -22.31360907	      4.34649544	    -11.40105084	    -11.53634722	     -0.20134724	      9.98248068	     -1.34019750	     -0.85527898	     -5.96162470	      2.56805768	      6.14219169	    -28.31850133	     -0.49425109	     14.32080579	     17.16098081	      8.52369134	    -25.13853834	     -0.00367391	      3.10586543	      1.64577174	    -15.02922489	     10.58840461	     36.08242703	     89.95437384	      0.00000000	      0.00000000	     -1.24870088	      7.80840152	     17.36985909	     19.03597403	     89.95437384	      0.00000000	      0.00000000
      0.01000000	     18.17383816	     -1.10855073	     -1.09362762	     -0.76304160	      0.94986632	     -0.99661799	    -22.71567742	      3.89530855	    -11.52043075	    -11.65729498	     -0.20345818	     10.30404971	     -0.76240924	     -1.02059343	     -5.62441753	      2.15029247	      6.63343456	    -26.66898999	     -0.46546168	     13.45517363	     16.55638415	      7.78828875	    -25.20881761	     -0.41320280	      3.35236608	      1.84420445	    -15.14567483	     10.43537145	     36.25850336	     89.95437384	      0.00000000	      0.00000000	     -1.57357027	      7.86074336	     17.17296285	     18.67890557	     89.95437384	      0.00000000	      0.00000000
      0.02000000	     18.18425407	     -0.78111725	     -1.33495427	     -0.75736421	      0.94956609	     -0.99613217	    -23.02336103	      3.43611642	    -11.55473338	    -11.84093724	     -0.20666334	     10.65915732	     -0.48652376	     -1.20868841	     -5.19750586	      1.79487739	      7.40695453	    -25.15240500	     -0.43899228	     12.28723517	     15.56459810	      6.63987485	    -25.20323654	     -0.84021676	      3.58323962	      2.07179293	    -15.24346345	     10.38089135	     36.34552562	     89.95437384	      0.00000000	      0.00000000	     -2.12743696	      7.98130472	     16.48289573	     18.66399444	     89.95437384	      0.00000000	      0.00000000
      0.03000000	     17.81959984	     -0.76100088	     -1.22956143	     -0.75225028	      0.94853918	     -0.99598537	    -22.80393116	      3.44993391	    -11.69101902	    -12.17705031	     -0.21252962	     10.84453862	     -0.60722034	     -1.22477270	     -3.90105473	      1.81666795	      7.82832773	    -24.60147208	     -0.42937669	     11.81739537	     15.14710111	      6.50241814	    -24.89108943	     -0.81240914	      3.61086348	      2.32341563	    -15.35108397	     10.27048553	     36.55751274	     89.95437384	      0.00000000	      0.00000000	     -2.58960028	      7.98784511	     16.31913423	     18.61066778	     89.95437384	      0.00000000	      0.00000000
      0.04000000	     18.17097239	     -0.37181358	     -1.77203107	     -0.74614494	      0.94882608	     -0.99504294	    -23.78286122	      2.97777254	    -10.58368010	    -11.79047195	     -0.20578256	     10.91777597	     -1.64521265	     -1.29868817	     -4.05231935	      1.58116944	      9.93857590	    -22.87859893	     -0.39930688	      8.67520601	     12.84184512	     -0.33972690	    -25.19335343	     -1.45017280	      4.14811920	      2.41503214	    -15.39357572	      9.91736657	     36.72548822	     89.95437384	      0.00000000	      0.00000000	     -3.06458683	      8.15964853	     15.42074564	     18.49552145	     89.95437384	      0.00000000	      0.00000000
      0.05000000	     17.89559560	     -0.27906198	     -1.63978762	     -0.74105384	      0.94795221	     -0.99513110	    -23.66346037	      2.92202520	    -10.73812706	    -12.12386934	     -0.21160144	     11.14463232	     -1.70123497	     -1.31490987	     -2.91740598	      1.48736404	     10.28760835	    -22.46280316	     -0.39204987	      7.90612380	     12.39181526	     -0.30152094	    -24.99507786	     -1.46280152	      4.10898181	      2.67804823	    -15.50499085	      9.77890223	     36.88172432	     89.95437384	      0.00000000	      0.00000000	     -3.46266022	      8.15696061	     15.25452720	     18.44528796	     89.95437384	      0.00000000	      0.00000000
      0.06000000	     18.28654396	      0.26655969	     -2.11593618	     -0.73491004	      0.94821979	     -0.99452581	    -24.43255500	      2.13519795	    -10.60825287	    -12.23315209	     -0.21350878	     11.48790318	     -1.42612796	     -1.38178863	     -3.07088693	      0.92897941	     11.83160721	    -21.21351291	     -0.37024565	      5.53195616	     10.29711106	     -0.74389749	    -25.34950558	     -2.22277832	      4.44133538	      2.77001234	    -15.50467557	      9.41712863	     37.08670112	     89.95437384	      0.00000000	      0.00000000	     -4.00247419	      8.29836154	     14.51848772	     18.48172974	     89.95437384	      0.00000000	      0.00000000
      0.07000000	     18.12446459	      0.35849906	     -1.94976032	     -0.72954794	      0.94746196	     -0.99466862	    -24.50783365	      2.10235653	    -10.70802569	    -12.47269895	     -0.21768966	     11.64127120	     -1.49981819	     -1.39317781	     -2.16384018	      0.83607346	     12.16459458	    -20.90175796	     -0.36480450	      5.04818027	      9.99630461	     -0.74107483	    -25.23218839	     -2.25475683	      4.38665661	      2.94505420	    -15.59569929	      9.28489302	     37.29438294	     89.95437384	      0.00000000	      0.00000000	     -4.38250577	      8.32716094	     14.44697756	     18.42395369	     89.95437384	      0.00000000	      0.00000000
      0.08000000	     18.13943992	      0.75962341	     -2.09284527	     -0.72393807	      0.94700791	     -0.99479676	    -24.75437708	      1.59831125	    -10.62496315	    -12.77240381	     -0.22292050	     12.11209366	     -1.67700198	     -1.44440853	     -1.70223518	      0.36659349	     12.93759030	    -20.17692419	     -0.35215376	      3.73563193	      8.96464727	     -0.85304443	    -25.28364403	     -2.68867961	      4.42204162	      3.08067137	    -15.63931815	      8.98536541	     37.53537823	     89.95437384	      0.00000000	      0.00000000	     -4.73837298	      8.31662028	     14.50371777	     18.28290325	     89.95437384	      0.00000000	      0.00000000
      0.09000000	     18.56687723	      1.04681781	     -2.74276016	     -0.71753422	      0.94714391	     -0.99411522	    -25.49392410	      0.96121323	    -10.34554620	    -13.00790061	     -0.22703069	     12.24063612	     -1.45991260	     -1.55711510	     -2.05381385	      0.03610860	     14.65574337	    -19.07415470	     -0.33290680	      3.20403681	      7.58541386	     -1.23024849	    -25.65282213	     -3.23183827	      4.97340714	      3.07864724	    -15.73429587	      8.69936273	     37.91465514	     89.95437384	      0.00000000	      0.00000000	     -5.12351047	      8.22661035	     14.97870305	     18.13603981	     89.95437384	      0.00000000	      0.00000000
